<svg xmlns="http://www.w3.org/2000/svg" width="32" height="32" viewBox="0 0 32 32">
    <g fill="#3a98b2">
        <circle cx="16" cy="16" r="16" opacity="0.25"/>
        <path d="M13.465 30.4a.752.752 0 0 0 .78-.761V17.93h3.123a1.561 1.561 0 0 0 0-3.123h-3.122v-3.123a1.561 1.561 0 0 1 1.561-1.561h1.561a1.561 1.561 0 1 0 0-3.123h-1.561a4.684 4.684 0 0 0-4.684 4.684v3.123H9.561a1.561 1.561 0 0 0 0 3.123h1.561v11.54a.755.755 0 0 0 .628.752 15.672 15.672 0 0 0 1.715.178z" transform="translate(1.587 1.58)"/>
    </g>
</svg>
