<svg xmlns="http://www.w3.org/2000/svg" id="Full_Color_Logo" width="284" height="58.262" viewBox="0 0 284 58.262">
    <defs>
        <style>
            .cls-1{fill:#fff}
        </style>
    </defs>
    <g id="Insurance_Broker" transform="translate(243.974 37.259)">
        <path id="R" d="M920.8 152.9h1.6a1.671 1.671 0 0 1 1.865 1.69 1.54 1.54 0 0 1-1.078 1.544l1.194 2.243h-1.02l-1.078-2.1h-.553v2.1h-.93zm1.515 2.622c.786 0 1.019-.35 1.019-.9s-.291-.874-1.019-.874h-.583v1.806z" class="cls-1" transform="translate(-896.534 -145.617)"/>
        <path id="E" d="M906.8 152.9h3.088v.816h-2.156v1.484h2.01l-.088.787h-1.923v1.573h2.243v.816h-3.146z" class="cls-1" transform="translate(-886.612 -145.617)"/>
        <path id="K" d="M890.1 152.9h.932v2.622l1.894-2.622h1.107l-1.748 2.36 1.952 3.146H893.1l-1.4-2.389-.67.874v1.515h-.93z" class="cls-1" transform="translate(-874.777 -145.617)"/>
        <path id="O_1_" d="M870.392 152.5a2.855 2.855 0 1 1-2.8 2.913v-.029a2.75 2.75 0 0 1 2.68-2.855.22.22 0 0 1 .12-.029zm0 4.894a1.871 1.871 0 0 0 1.835-2.01 1.843 1.843 0 1 0-1.835 2.01z" class="cls-1" transform="translate(-858.827 -145.333)"/>
        <path id="R_1_" d="M853.1 152.9h1.6a1.671 1.671 0 0 1 1.865 1.69 1.551 1.551 0 0 1-1.049 1.544l1.194 2.243h-1.02l-1.078-2.1h-.553v2.1h-.932l-.027-5.477zm1.515 2.622c.786 0 1.02-.35 1.02-.9s-.291-.874-1.02-.874H854v1.806z" class="cls-1" transform="translate(-848.556 -145.617)"/>
        <path id="B" d="M837.5 152.9h1.544c1.253 0 1.835.612 1.835 1.457a1.2 1.2 0 0 1-.728 1.107 1.34 1.34 0 0 1 1.02 1.311 1.731 1.731 0 0 1-1.923 1.631H837.5zm1.573 2.243c.583 0 .874-.262.874-.728s-.291-.7-.9-.7h-.612v1.427zm.116 2.418c.7 0 1.049-.35 1.049-.845 0-.466-.233-.845-1.049-.845h-.757v1.69z" class="cls-1" transform="translate(-837.5 -145.617)"/>
        <path id="E_1_" d="M964.129 128.3h3.088v.816h-2.185v1.484h1.981l-.088.787h-1.893v1.573h2.214v.816H964.1z" class="cls-1" transform="translate(-927.22 -128.183)"/>
        <path id="C" d="M948.726 127.9a4.036 4.036 0 0 1 1.544.291l-.2.757a4.181 4.181 0 0 0-1.34-.233 2.051 2.051 0 0 0 0 4.078 4.181 4.181 0 0 0 1.34-.233l.233.787a4.69 4.69 0 0 1-1.573.262 2.855 2.855 0 0 1 0-5.71z" class="cls-1" transform="translate(-914.322 -127.9)"/>
        <path id="N_2_" d="M928 128.346l.816-.117 2.593 3.816V128.2h.9v5.506h-.809l-2.564-3.816v3.816H928z" class="cls-1" transform="translate(-901.636 -128.113)"/>
        <path id="A_1_" d="M911.006 128.3h1.107l1.806 5.506h-.932l-.5-1.544h-1.865l-.5 1.544h-.922zm1.224 3.146l-.379-1.194c-.087-.291-.2-.7-.291-1.078-.087.35-.175.728-.291 1.078l-.379 1.194z" class="cls-1" transform="translate(-888.313 -128.183)"/>
        <path id="R_2_" d="M895.3 128.3h1.6a1.671 1.671 0 0 1 1.864 1.69 1.551 1.551 0 0 1-1.049 1.544l1.194 2.243h-1.02l-1.078-2.1h-.553v2.1h-.932l-.026-5.477zm1.515 2.622c.786 0 1.02-.35 1.02-.9s-.291-.9-1.02-.9h-.615v1.806z" class="cls-1" transform="translate(-878.462 -128.183)"/>
        <path id="U" d="M877 128.229h.932v3.408a1.2 1.2 0 0 0 1.253 1.369c.845 0 1.253-.583 1.253-1.4V128.2h.9v3.5a2.023 2.023 0 0 1-1.952 2.1h-.2a2.035 2.035 0 0 1-2.156-2.1l-.03-3.471z" class="cls-1" transform="translate(-865.493 -128.113)"/>
        <path id="S" d="M862.391 132.515a2.816 2.816 0 0 0 1.369.35c.553 0 .874-.291.874-.728 0-1.078-2.359-.845-2.359-2.622a1.574 1.574 0 0 1 1.719-1.515 3.279 3.279 0 0 1 1.4.32l-.262.757a3.6 3.6 0 0 0-1.136-.262.663.663 0 0 0-.757.583v.116c0 1.049 2.359.874 2.359 2.622a1.664 1.664 0 0 1-1.864 1.544 3.561 3.561 0 0 1-1.631-.408z" class="cls-1" transform="translate(-854.934 -127.971)"/>
        <path id="N_1_" d="M844.6 128.346l.816-.117 2.593 3.816V128.2h.9v5.506h-.809l-2.563-3.816v3.816h-.937z" class="cls-1" transform="translate(-842.532 -128.113)"/>
        <path id="I_1_" d="M837.5 128.3h.932v5.506h-.932z" class="cls-1" transform="translate(-837.5 -128.183)"/>
    </g>
    <g id="Diamond_Shape">
        <path id="Shap" d="M43.7 47.338L10.924 14.566l7.283-7.283h50.98l7.283 7.283-5.943 5.914a13.278 13.278 0 0 1 8.157 2.767l8.71-8.681L72.828 0H14.566L0 14.566l43.7 43.7 9.817-9.817 2.33-13.255z" class="cls-1"/>
    </g>
    <g id="Diamond" transform="translate(55.116 21.848)">
        <path id="D_1_" d="M740.052 76.8h9.934c7.865 0 11.3 5.156 11.3 11.419 0 8.506-5.535 16.663-16.255 16.663H735.1zm5.448 23.072c7.545 0 9.817-6.2 9.817-11.07 0-3.7-1.748-6.962-6.642-6.962h-3.816l-3.175 18.032z" class="cls-1" transform="translate(-576.073 -76.276)"/>
        <path id="N" d="M645.936 77.453l4.894-.524 8.623 17.42L662.57 76.9h5.681l-4.981 28.082h-4.952l-8.477-17.333-3.088 17.333H641.1z" class="cls-1" transform="translate(-509.456 -76.347)"/>
        <path id="O" d="M553.342 75c7.487 0 11.944 5.535 11.944 12.323a17.131 17.131 0 0 1-17.042 16.809c-7.458 0-11.944-5.477-11.944-12.264A17.2 17.2 0 0 1 553.342 75zm-4.195 24.062c5.884 0 10.167-5.418 10.167-11.186 0-4.253-2.418-7.807-6.846-7.807-5.884 0-10.167 5.506-10.167 11.186-.029 4.253 2.418 7.807 6.846 7.807z" class="cls-1" transform="translate(-435.186 -75)"/>
        <path id="M" d="M415.631 76.8h6.351l1.631 16.576c.175 1.544.233 3.7.35 5.681.816-1.981 1.69-4.137 2.389-5.681l7.457-16.576h6.351l-.9 28.082h-5.71l.641-14.07c.087-1.427.291-3.234.524-5.156-.816 1.894-1.631 3.758-2.272 5.185l-6.351 13.779h-6.2L418.4 90.841c-.175-1.427-.35-3.321-.5-5.273-.408 1.894-.845 3.816-1.253 5.214l-4.311 14.07H406.6z" class="cls-1" transform="translate(-343.269 -76.276)"/>
        <path id="A" d="M329.266 76.8h6.817l3.962 28.082h-5.739l-.961-7.254h-8.623l-3.525 7.254h-5.8zm3.408 15.876l-.524-4.137c-.2-1.631-.35-3.933-.437-6.03-.845 2.156-1.777 4.428-2.564 6.03l-2.039 4.137z" class="cls-1" transform="translate(-278.636 -76.276)"/>
        <path id="I" d="M289.223 76.8h5.677l-4.952 28.082H284.3z" class="cls-1" transform="translate(-256.596 -76.276)"/>
        <path id="D" d="M204.028 76.8h-1.282l-10.458 10.487-3.088 17.6h9.934c10.691 0 16.255-8.128 16.255-16.663-.029-6.268-3.496-11.424-11.361-11.424zm-4.486 23.072h-3.816L198.9 81.84h3.816c4.894 0 6.642 3.292 6.642 6.962.001 4.865-2.271 11.07-9.816 11.07z" class="cls-1" transform="translate(-189.2 -76.276)"/>
    </g>
    <g id="LTD" transform="translate(243.974 21.848)">
        <path id="Deep_D" d="M898.922 86.741a1.738 1.738 0 0 0-.641-.466 2.09 2.09 0 0 0-.845-.175H896.3v4.428h1.136a2.09 2.09 0 0 0 .845-.175 1.8 1.8 0 0 0 1.019-1.165 3.047 3.047 0 0 0 .146-.874 2.442 2.442 0 0 0-.146-.9 1.723 1.723 0 0 0-.378-.673z" class="cls-1" transform="translate(-879.171 -82.866)"/>
        <path id="Shape" d="M859.2 75h-16.223a5.477 5.477 0 1 0 0 10.953H859.2a5.477 5.477 0 1 0 0-10.953zm-11.39 8.827h-4.748V77.1h1.311v5.564h3.437zm4.69-5.564h-2.156v5.564h-1.311v-5.564h-2.153v-1.136h5.62zm6.351 3.583a2.841 2.841 0 0 1-1.719 1.748 3.161 3.161 0 0 1-1.369.233h-2.447V77.1h2.447a4.154 4.154 0 0 1 1.457.262 2.87 2.87 0 0 1 1.661 1.777 3.985 3.985 0 0 1 .2 1.311 3.292 3.292 0 0 1-.233 1.4z" class="cls-1" transform="translate(-837.5 -75)"/>
    </g>
</svg>
