<svg xmlns="http://www.w3.org/2000/svg" width="31.228" height="31.228" viewBox="0 0 31.228 31.228">
    <path fill="#3a98b2" fill-rule="evenodd" d="M9.807 2A7.807 7.807 0 0 0 2 9.807v15.614a7.807 7.807 0 0 0 7.807 7.807h15.614a7.807 7.807 0 0 0 7.807-7.807V9.807A7.807 7.807 0 0 0 25.421 2zm7.807 20.3a4.684 4.684 0 1 0-4.684-4.684 4.684 4.684 0 0 0 4.684 4.684z" opacity="0.25" transform="translate(-2 -2)"/>
    <path fill="#3a98b2" d="M18.561 8.123A1.561 1.561 0 1 0 17 6.561a1.561 1.561 0 0 0 1.561 1.562z" transform="translate(6.421 -.316)"/>
    <path fill="#3a98b2" fill-rule="evenodd" d="M22.614 14.807A7.807 7.807 0 1 1 14.807 7a7.807 7.807 0 0 1 7.807 7.807zm-3.123 0a4.684 4.684 0 1 1-4.684-4.684 4.684 4.684 0 0 1 4.684 4.684z" transform="translate(.807 .807)"/>
</svg>
