<svg xmlns="http://www.w3.org/2000/svg" id="_007-bill" width="118.949" height="122.802" viewBox="0 0 118.949 122.802">
    <defs>
        <style>
            .cls-1{fill:#eef4ff}.cls-2{fill:#d9e6fc}.cls-5{fill:#59c36a}.cls-6{fill:#ff5b5b}.cls-7{fill:#e50058}
        </style>
    </defs>
    <path id="Path_13494" d="M145.187 15.17v64.145a3.607 3.607 0 0 1-.814 2.283l-23.1 28.317a3.608 3.608 0 0 1-2.8 1.329H71.988a7.232 7.232 0 0 1-7.224-7.224V15.17a7.941 7.941 0 0 0-7.946-7.946 3.613 3.613 0 0 1-3.612-3.612c0-1.994-1.994-3.612 0-3.612h76.811a15.186 15.186 0 0 1 15.17 15.17z" class="cls-1" transform="translate(-41.648)"/>
    <path id="Path_13495" d="M305.9 15.17v64.145a3.607 3.607 0 0 1-.814 2.283l-23.1 28.317a3.608 3.608 0 0 1-2.8 1.329H264V0h26.727A15.186 15.186 0 0 1 305.9 15.17z" class="cls-2" transform="translate(-202.358)"/>
    <path id="Path_13496" fill="#bed9fd" d="M31.116 38.044H15.224A7.223 7.223 0 0 1 8 30.821V11.558a11.558 11.558 0 1 1 23.116 0z" transform="translate(-8)"/>
    <path id="Path_13497" fill="#97de3d" d="M351.676 335.838a23.871 23.871 0 1 1-7.159-17.012s-.718 3.933-.039 4.813c.815 1.057 4.422 1.047 4.422 1.047a23.657 23.657 0 0 1 2.776 11.152z" transform="translate(-232.727 -236.874)"/>
    <path id="Path_13498" d="M426.838 335.838A23.865 23.865 0 0 1 403 359.676V312a23.76 23.76 0 0 1 16.681 6.824s-.329 4.389.4 5.369 3.979.492 3.979.492a23.694 23.694 0 0 1 2.778 11.153z" class="cls-5" transform="translate(-307.889 -236.874)"/>
    <path id="Path_13499" d="M394.454 346.211l-18.507 18.521a3.616 3.616 0 0 1-5.109 0l-5.779-5.779a3.613 3.613 0 0 1 5.109-5.109l3.224 3.227 16.679-16.72a23.767 23.767 0 0 1 4.383 5.86z" class="cls-1" transform="translate(-278.282 -258.398)"/>
    <path id="Path_13500" d="M424.065 346.2l-18.51 18.523a3.6 3.6 0 0 1-2.555 1.06v-8.719l16.681-16.722a24.042 24.042 0 0 1 4.384 5.861z" class="cls-2" transform="translate(-307.889 -258.392)"/>
    <g id="Group_9477" transform="translate(38.526 23.116)">
        <path id="Path_13501" d="M179.317 103.224h-7.705a3.612 3.612 0 1 1 0-7.224h7.705a3.612 3.612 0 1 1 0 7.224z" class="cls-6" transform="translate(-168 -96)"/>
        <path id="Path_13502" d="M179.317 159.224h-7.705a3.612 3.612 0 0 1 0-7.224h7.705a3.612 3.612 0 0 1 0 7.224z" class="cls-6" transform="translate(-168 -138.516)"/>
        <path id="Path_13503" d="M179.317 223.224h-7.705a3.612 3.612 0 1 1 0-7.224h7.705a3.612 3.612 0 1 1 0 7.224z" class="cls-6" transform="translate(-168 -187.105)"/>
        <path id="Path_13504" d="M196.413 283.612a3.613 3.613 0 0 1-3.612 3.612h-21.189a3.612 3.612 0 0 1 0-7.224H192.8a3.613 3.613 0 0 1 3.613 3.612z" class="cls-6" transform="translate(-168 -235.695)"/>
        <path id="Path_13505" d="M196.413 347.612a3.613 3.613 0 0 1-3.612 3.612h-21.189a3.612 3.612 0 0 1 0-7.224H192.8a3.613 3.613 0 0 1 3.613 3.612z" class="cls-6" transform="translate(-168 -284.285)"/>
    </g>
    <path id="Path_13506" d="M282.045 85.31c-3.332-1.09-7.018-2.407-9.088-3.91a2.279 2.279 0 0 1-.635-2.248c.747-4.155 7.195-3.957 9.7-1.961l-.045-.038v-.006a3.609 3.609 0 1 0 4.622-5.54 13.89 13.89 0 0 0-5.977-2.691v-1.154a3.612 3.612 0 0 0-7.224 0v1.382c-9.027 2.348-10.976 13.539-4.688 18.1 2.322 1.685 5.533 3.113 11.085 4.929 3.427 1.121 3.606 3.426 3.406 4.7-.359 2.3-2.457 4.782-6.213 4.805-3.613.022-4.741-.143-7.513-1.821a3.612 3.612 0 1 0-3.741 6.179 16.949 16.949 0 0 0 7.664 2.733v1.331a3.612 3.612 0 1 0 7.224 0v-1.658c11.585-2.979 14.083-18.994 1.42-23.136z" class="cls-5" transform="translate(-202.355 -48.703)"/>
    <path id="Path_13507" d="M269.3 347.612a3.613 3.613 0 0 1-3.612 3.612H264V344h1.685a3.613 3.613 0 0 1 3.615 3.612z" class="cls-7" transform="translate(-202.358 -261.169)"/>
    <path id="Path_13508" d="M265.685 287.224H264V280h1.685a3.612 3.612 0 0 1 0 7.224z" class="cls-7" transform="translate(-202.358 -212.58)"/>
</svg>
