<svg xmlns="http://www.w3.org/2000/svg" id="_008-personal-data" width="103.539" height="123.283" viewBox="0 0 103.539 123.283">
    <defs>
        <style>
            .cls-4{fill:#e2dff4}.cls-9{fill:#0d8ebc}.cls-10{fill:#0a617d}
        </style>
    </defs>
    <path id="Path_13509" fill="#fff16b" d="M101 62v97.519a10.848 10.848 0 0 0 10.835 10.835h67.42a10.848 10.848 0 0 0 10.835-10.835V72.835A10.848 10.848 0 0 0 179.256 62z" transform="translate(-86.553 -47.071)"/>
    <g id="Group_9478" transform="translate(58.993 14.929)">
        <path id="Path_13510" fill="#ffc178" d="M319.71 62H286v108.354h33.71a10.848 10.848 0 0 0 10.835-10.835V72.835A10.848 10.848 0 0 0 319.71 62z" transform="translate(-286 -62)"/>
    </g>
    <g id="Group_9491">
        <path id="Path_13511" fill="#f9f9f9" d="M119.256 0H68.691L57.374 16.374 41 27.691V98a10.835 10.835 0 0 0 10.835 10.835h67.42A10.835 10.835 0 0 0 130.091 98V10.835A10.835 10.835 0 0 0 119.256 0z" transform="translate(-41)"/>
        <g id="Group_9479" transform="translate(44.546)">
            <path id="Path_13512" d="M259.71 0H226v108.836h33.71A10.848 10.848 0 0 0 270.546 98V10.835A10.848 10.848 0 0 0 259.71 0z" class="cls-4" transform="translate(-226)"/>
        </g>
        <g id="Group_9480">
            <path id="Path_13513" d="M65.079 27.691H41L68.691 0v24.079a3.612 3.612 0 0 1-3.612 3.612z" class="cls-4" transform="translate(-41)"/>
        </g>
        <g id="Group_9481" transform="translate(45.75 26.968)">
            <path id="Path_13514" fill="#f1b7e7" d="M258.691 136.079h-24.079a3.612 3.612 0 0 1-3.612-3.612v-4.816a15.651 15.651 0 0 1 31.3 0v4.816a3.612 3.612 0 0 1-3.609 3.612z" transform="translate(-231 -112)"/>
        </g>
        <g id="Group_9482" transform="translate(61.401 26.968)">
            <path id="Path_13515" fill="#e78ef4" d="M296 112v24.079h12.039a3.612 3.612 0 0 0 3.612-3.612v-4.816A15.669 15.669 0 0 0 296 112z" transform="translate(-296 -112)"/>
        </g>
        <g id="Group_9483" transform="translate(51.167 12.521)">
            <path id="Path_13516" fill="#ffddce" d="M263.733 72.467a10.233 10.233 0 1 1 10.233-10.233 10.245 10.245 0 0 1-10.233 10.233z" transform="translate(-253.5 -52)"/>
        </g>
        <path id="Path_13517" fill="#ffcbbc" d="M296 52v20.467A10.233 10.233 0 0 0 296 52z" transform="translate(-234.599 -39.479)"/>
        <g id="Group_9484" transform="translate(14.447 43.823)">
            <path id="Path_13518" d="M121.467 189.224h-16.855a3.612 3.612 0 0 1 0-7.224h16.855a3.612 3.612 0 1 1 0 7.224z" class="cls-9" transform="translate(-101 -182)"/>
        </g>
        <g id="Group_9485" transform="translate(14.447 58.271)">
            <path id="Path_13519" d="M157.585 249.224h-52.973a3.612 3.612 0 0 1 0-7.224h52.973a3.612 3.612 0 0 1 0 7.224z" class="cls-9" transform="translate(-101 -242)"/>
        </g>
        <g id="Group_9486" transform="translate(44.546 58.271)">
            <path id="Path_13520" d="M252.487 242H226v7.224h26.487a3.612 3.612 0 0 0 0-7.224z" class="cls-10" transform="translate(-226 -242)"/>
        </g>
        <g id="Group_9487" transform="translate(14.447 72.718)">
            <path id="Path_13521" d="M157.585 309.224h-52.973a3.612 3.612 0 0 1 0-7.224h52.973a3.612 3.612 0 0 1 0 7.224z" class="cls-9" transform="translate(-101 -302)"/>
        </g>
        <g id="Group_9488" transform="translate(44.546 72.718)">
            <path id="Path_13522" d="M252.487 302H226v7.224h26.487a3.612 3.612 0 1 0 0-7.224z" class="cls-10" transform="translate(-226 -302)"/>
        </g>
        <g id="Group_9489" transform="translate(14.447 87.165)">
            <path id="Path_13523" d="M157.585 369.224h-52.973a3.612 3.612 0 0 1 0-7.224h52.973a3.612 3.612 0 0 1 0 7.224z" class="cls-9" transform="translate(-101 -362)"/>
        </g>
        <g id="Group_9490" transform="translate(44.546 87.165)">
            <path id="Path_13524" d="M252.487 362H226v7.224h26.487a3.612 3.612 0 1 0 0-7.224z" class="cls-10" transform="translate(-226 -362)"/>
        </g>
    </g>
</svg>
