<svg xmlns="http://www.w3.org/2000/svg" width="62" height="50" viewBox="0 0 62 50">
    <defs>
        <style>
            .cls-1{fill:#656d78}.cls-3{fill:#ccd1d9}.cls-4{fill:#ed5565}.cls-7{fill:#e6e9ed}.cls-8{fill:#da4453}
        </style>
    </defs>
    <g id="_001-car" transform="translate(-1 -7)">
        <g id="Group_9514">
            <g id="Group_9512">
                <path id="Path_13527" d="M60 46a1 1 0 0 1 1 1v9a1 1 0 0 1-1 1H50a1 1 0 0 1-1-1v-9a1 1 0 0 1 1-1z" class="cls-1"/>
            </g>
            <g id="Group_9513">
                <path id="Path_13528" d="M14 46a1 1 0 0 1 1 1v9a1 1 0 0 1-1 1H4a1 1 0 0 1-1-1v-9a1 1 0 0 1 1-1z" class="cls-1"/>
            </g>
        </g>
        <g id="Group_9515">
            <path id="Path_13529" fill="#5d9cec" d="M51.83 10L56 24.99H8L12.17 10z"/>
        </g>
        <g id="Group_9516">
            <path id="Path_13530" d="M51.83 10H12.17L8 24.99H5L10 7h44l5 17.99h-3z" class="cls-3"/>
        </g>
        <g id="Group_9517">
            <path id="Path_13531" d="M8 24.99V31H1v-2.01a4.012 4.012 0 0 1 4-4z" class="cls-4"/>
        </g>
        <g id="Group_9518">
            <path id="Path_13532" d="M8 24.99h6V31H8z" class="cls-4"/>
        </g>
        <g id="Group_9519">
            <path id="Path_13533" d="M63 28.99V31h-7v-6.01h3a4.012 4.012 0 0 1 4 4z" class="cls-4"/>
        </g>
        <g id="Group_9520">
            <path id="Path_13534" fill="#f5f7fa" d="M38 35H18a4 4 0 0 1-4-4v-6.01h35.99V31a4 4 0 0 1-4 4z"/>
        </g>
        <g id="Group_9521">
            <path id="Path_13535" d="M49.99 24.99H56V31h-6.01z" class="cls-4"/>
        </g>
        <g id="Group_9522">
            <path id="Path_13536" d="M42 47a2 2 0 0 0 2 2H20a2 2 0 0 0 0-4h24a2 2 0 0 0-2 2z" class="cls-3"/>
        </g>
        <g id="Group_9523">
            <path id="Path_13537" d="M50 47v2h-6a2 2 0 0 0 0-4h4a2.006 2.006 0 0 1 2 2z" class="cls-3"/>
        </g>
        <g id="Group_9524">
            <path id="Path_13538" d="M14 47a2.006 2.006 0 0 1 2-2h4a2 2 0 0 0 0 4h-6z" class="cls-3"/>
        </g>
        <g id="Group_9525">
            <path id="Path_13539" d="M20 45a2 2 0 1 1-2 2 2 2 0 0 1 2-2z" class="cls-1"/>
        </g>
        <g id="Group_9526">
            <path id="Path_13540" d="M44 45a2 2 0 1 1-2 2 2.006 2.006 0 0 1 2-2z" class="cls-1"/>
        </g>
        <circle id="Ellipse_49" cx="1.5" cy="1.5" r="1.5" class="cls-1" transform="translate(18.5 45.5)"/>
        <circle id="Ellipse_50" cx="1.5" cy="1.5" r="1.5" class="cls-1" transform="translate(42.5 45.5)"/>
        <g id="Group_9527">
            <path id="Path_13541" fill="#fff" d="M26 38h12v4H26z"/>
        </g>
        <g id="Group_9528">
            <path id="Path_13542" d="M56 31h-6.01a4 4 0 0 1-4 4H18a4 4 0 0 1-4-4H1v14a3.914 3.914 0 0 0 1.01 2.63A3.937 3.937 0 0 0 5 49h9v-2a2.006 2.006 0 0 1 2-2h32a2.006 2.006 0 0 1 2 2v2h9a4.044 4.044 0 0 0 4-4V31zM38 42H26v-4h12z" class="cls-7"/>
        </g>
        <g id="Group_9529">
            <path id="Path_13543" d="M32 33a1 1 0 0 1-1-1v-1a1 1 0 0 1 2 0v1a1 1 0 0 1-1 1z" class="cls-7"/>
        </g>
        <g id="Group_9530">
            <path id="Path_13544" d="M7 24.993h2v6H7z" class="cls-8"/>
            <path id="Path_13545" d="M55 24.993h2v6h-2z" class="cls-8"/>
        </g>
    </g>
</svg>
