<svg xmlns="http://www.w3.org/2000/svg" width="49.03" height="70.555" viewBox="0 0 49.03 70.555">
    <g>
        <g>
            <path d="M773.984 185.793v-3.018h3.059v3.013c.19.011.345.027.5.027 4.413 0 8.828.071 13.24-.012a9.372 9.372 0 0 1 9.406 7.687 72.066 72.066 0 0 1 1.4 14.638 67.822 67.822 0 0 1-1.527 13.475 9.162 9.162 0 0 1-8.845 7.144c-4.531.021-9.062.005-13.593.005h-.56v3.048H774v-3.052h-.508c-11.4 0-22.8-.035-34.2.023a6.418 6.418 0 0 1-6.414-4.913 65.393 65.393 0 0 1-1.469-8.727 84.371 84.371 0 0 1-.259-12.078 57.868 57.868 0 0 1 1.844-12.714 6.07 6.07 0 0 1 5.891-4.52c3.825-.022 7.65-.005 11.475-.005h23.126c.137.001.281-.014.498-.021zm19.957 38.367v-9.213H798c.68-2.877.676-12.709-.006-15.329h-4.052v-9.208h1.042a1.233 1.233 0 0 0-.383-.4 6.279 6.279 0 0 0-3.781-1.126q-7.944 0-15.888.018a1.239 1.239 0 0 0-.709.256q-3.5 2.763-6.965 5.562a1.351 1.351 0 0 1-.918.319q-6.179-.018-12.358 0a1.238 1.238 0 0 1-.835-.3q-3.491-2.806-7-5.588a1.248 1.248 0 0 0-.712-.247c-2.059-.019-4.119-.013-6.178-.01a3.127 3.127 0 0 0-3.412 2.665 58.371 58.371 0 0 0-1.655 12.389 80.5 80.5 0 0 0 .338 11.547 47.485 47.485 0 0 0 1.4 7.8 3 3 0 0 0 3.175 2.383c2.1 0 4.208.011 6.311-.011a1.385 1.385 0 0 0 .787-.277c2.331-1.842 4.643-3.709 6.973-5.552a1.306 1.306 0 0 1 .749-.266q6.289-.023 12.578 0a1.172 1.172 0 0 1 .671.239c2.181 1.724 4.364 3.446 6.51 5.213a2.682 2.682 0 0 0 1.858.668c5.178-.031 10.357-.017 15.535-.012a6 6 0 0 0 3.695-1.236 1.65 1.65 0 0 1 .3-.143l-.115-.136zm-43.1-35.252a2.479 2.479 0 0 0 .177.187c1.124.9 2.243 1.807 3.38 2.692a.984.984 0 0 0 .569.15q5.2.013 10.409 0a1.259 1.259 0 0 0 .71-.244c.934-.714 1.844-1.46 2.761-2.2.209-.168.414-.341.711-.586zm18.632 36.746a.943.943 0 0 0-.108-.148c-1.135-.912-2.268-1.827-3.413-2.726a.841.841 0 0 0-.488-.138q-5.273-.012-10.547 0a1.053 1.053 0 0 0-.594.207c-.863.662-1.709 1.347-2.559 2.027-.291.233-.575.475-.936.774z" transform="rotate(-90 309.41 492.185) translate(731.039 182.775) translate(-731.039 -182.775)"/>
            <path d="M1190.718 307.936c-1.342-1.353-2.613-2.638-3.889-3.919-1.3-1.3-2.6-2.6-3.89-3.91a1.026 1.026 0 0 1-.289-.638q-.027-7.942-.009-15.884a.9.9 0 0 1 .221-.579q3.821-3.853 7.668-7.681a2.527 2.527 0 0 1 .2-.16 33.547 33.547 0 0 1 4.124 14.515 34.126 34.126 0 0 1-4.136 18.256zm-.96-5.286a31.009 31.009 0 0 0 .041-22.153.8.8 0 0 0-.151.084c-1.26 1.255-2.523 2.507-3.772 3.774a.729.729 0 0 0-.16.471q-.01 6.7.007 13.406a.855.855 0 0 0 .222.533c.618.649 1.264 1.272 1.893 1.911s1.243 1.278 1.92 1.974z" transform="rotate(-90 309.41 492.185) translate(731.039 182.775) translate(-1142.768 -267.01)"/>
            <path d="M820.231 305.175c-.427-1.554-.91-3-1.218-4.488a64.259 64.259 0 0 1-1.017-15.8 49.109 49.109 0 0 1 1.187-9.389c.288-1.209.7-2.389 1.074-3.651.161.135.264.208.352.3q3.9 3.9 7.794 7.8a.9.9 0 0 1 .237.57q.016 7.986 0 15.972a.836.836 0 0 1-.218.534q-3.871 3.9-7.763 7.773c-.106.104-.216.19-.428.379zm1.6-5.985a1.727 1.727 0 0 0 .208-.139c1.115-1.11 2.234-2.217 3.336-3.34a.79.79 0 0 0 .187-.507q.019-6.706.006-13.412a.847.847 0 0 0-.218-.537c-1.036-1.064-2.091-2.11-3.141-3.16-.1-.1-.207-.182-.38-.333a68.015 68.015 0 0 0 .003 21.428z" transform="rotate(-90 309.41 492.185) translate(731.039 182.775) translate(-810.241 -263.982)"/>
        </g>
    </g>
</svg>
