<svg xmlns="http://www.w3.org/2000/svg" id="_004-document" width="123.765" height="114.374" viewBox="0 0 123.765 114.374">
    <defs>
        <style>
            .cls-7{fill:#4793ff}.cls-9{fill:#7dd5f4}
        </style>
    </defs>
    <g id="Group_9467" transform="translate(12.039 15.838)">
        <path id="Path_13474" fill="#fff4f4" fill-rule="evenodd" d="M50 85.275h99.686v78.069H50z" transform="translate(-50 -85.275)"/>
    </g>
    <path id="Path_13475" fill="#f6efea" fill-rule="evenodd" d="M257 85.275h49.843v78.069H257z" transform="translate(-195.118 -69.437)"/>
    <g id="Group_9468" transform="translate(8.428 12.226)">
        <path id="Path_13476" fill="#00429d" d="M138.3 155.567H38.612A3.612 3.612 0 0 1 35 151.955V73.886a3.612 3.612 0 0 1 3.612-3.612H138.3a3.612 3.612 0 0 1 3.612 3.612v78.07a3.612 3.612 0 0 1-3.612 3.611zm-96.074-7.224h92.462V77.5H42.224z" transform="translate(-35 -70.274)"/>
    </g>
    <path id="Path_13477" fill="#00347b" d="M306.843 70.274H257V77.5h46.231v70.846H257v7.224h49.843a3.612 3.612 0 0 0 3.612-3.612V73.886a3.612 3.612 0 0 0-3.612-3.612z" transform="translate(-195.118 -58.048)"/>
    <g id="Group_9470" transform="translate(22.875)">
        <g id="Group_9469">
            <path id="Path_13478" fill="#f6efea" d="M168.922 117.019h-70.31A3.612 3.612 0 0 1 95 113.407v-90.3a3.612 3.612 0 0 1 3.612-3.607h54.659l19.263 19.294v74.613a3.612 3.612 0 0 1-3.612 3.612z" transform="translate(-95 -19.5)"/>
        </g>
    </g>
    <path id="Path_13479" fill="#eee1dc" d="M276.263 19.5H257v97.519h34.914a3.612 3.612 0 0 0 3.612-3.612V38.794z" transform="translate(-195.118 -19.5)"/>
    <path id="Path_13480" d="M103.3 418.579H20.467A20.49 20.49 0 0 1 0 398.112a3.612 3.612 0 0 1 3.612-3.612h116.541a3.612 3.612 0 0 1 3.612 3.612 20.49 20.49 0 0 1-20.465 20.467z" class="cls-7" transform="translate(0 -304.205)"/>
    <path id="Path_13481" fill="#e0d2cd" fill-rule="evenodd" d="M337 19.628v15.651a3.612 3.612 0 0 0 3.612 3.612h15.651z" transform="translate(-255.855 -19.597)"/>
    <g id="Group_9471" transform="translate(37.322 14.447)">
        <path id="Path_13482" d="M180.764 86.724h-22.152a3.612 3.612 0 1 1 0-7.224h22.153a3.612 3.612 0 1 1 0 7.224z" class="cls-9" transform="translate(-155 -79.5)"/>
    </g>
    <g id="Group_9472" transform="translate(37.322 28.894)">
        <path id="Path_13483" d="M180.764 146.723h-22.152a3.612 3.612 0 0 1 0-7.224h22.153a3.612 3.612 0 0 1 0 7.224z" class="cls-9" transform="translate(-155 -139.499)"/>
    </g>
    <g id="Group_9473" transform="translate(37.322 46.953)">
        <path id="Path_13484" d="M200.028 221.722h-41.416a3.612 3.612 0 1 1 0-7.224h41.416a3.612 3.612 0 1 1 0 7.224z" class="cls-9" transform="translate(-155 -214.498)"/>
    </g>
    <g id="Group_9474" transform="translate(37.322 61.4)">
        <path id="Path_13485" d="M200.028 281.722h-41.416a3.612 3.612 0 0 1 0-7.224h41.416a3.612 3.612 0 0 1 0 7.224z" class="cls-9" transform="translate(-155 -274.498)"/>
    </g>
    <g id="Group_9475" transform="translate(37.322 75.848)">
        <path id="Path_13486" d="M200.028 341.723h-41.416a3.612 3.612 0 1 1 0-7.224h41.416a3.612 3.612 0 0 1 0 7.224z" class="cls-9" transform="translate(-155 -334.499)"/>
    </g>
    <g id="Group_9476" transform="translate(61.882)">
        <path id="Path_13487" d="M356.264 38.794L337 19.5h15.651a3.612 3.612 0 0 1 3.612 3.612z" class="cls-7" transform="translate(-317.738 -19.5)"/>
        <path id="Path_13488" d="M258.2 79.5H257v7.224h1.2a3.612 3.612 0 1 0 0-7.224z" class="cls-7" transform="translate(-257 -65.053)"/>
        <path id="Path_13489" d="M258.2 139.5H257v7.224h1.2a3.612 3.612 0 0 0 0-7.224z" class="cls-7" transform="translate(-257 -110.605)"/>
        <path id="Path_13490" d="M277.467 214.5H257v7.224h20.467a3.612 3.612 0 1 0 0-7.224z" class="cls-7" transform="translate(-257 -167.545)"/>
        <path id="Path_13491" d="M277.467 274.5H257v7.224h20.467a3.612 3.612 0 0 0 0-7.224z" class="cls-7" transform="translate(-257 -213.098)"/>
        <path id="Path_13492" d="M277.467 334.5H257v7.224h20.467a3.612 3.612 0 0 0 0-7.224z" class="cls-7" transform="translate(-257 -258.651)"/>
    </g>
    <path id="Path_13493" fill="#525cdd" d="M315.271 394.5H257v24.079h41.415a20.49 20.49 0 0 0 20.467-20.467 3.612 3.612 0 0 0-3.611-3.612z" transform="translate(-195.118 -304.205)"/>
</svg>
