<?xml version="1.0"?>
<svg xmlns="http://www.w3.org/2000/svg" xmlns:xlink="http://www.w3.org/1999/xlink" viewBox="0 0 512 512" width="512" height="512"><linearGradient id="a" gradientUnits="userSpaceOnUse" x1="256" x2="256" y1="14" y2="506.065"><stop offset="0" stop-color="#00efd1"/><stop offset="1" stop-color="#00acea"/></linearGradient><linearGradient id="b" x1="195.849" x2="195.849" xlink:href="#a" y1="14" y2="506.065"/><path d="m478.5 185.278-68.5-47.373v-67.85c0-5.523-4.011-10.055-9.533-10.055h-288.934c-5.523 0-9.533 4.532-9.533 10.055v67.837l-68.5 47.387a10.194 10.194 0 0 0 -4.5 8.221v248.45a9.99 9.99 0 0 0 9.933 10.05h434.134a9.99 9.99 0 0 0 9.933-10.055v-248.445a10.193 10.193 0 0 0 -4.5-8.222zm-68.5-23.034 46.174 32.028-46.174 35.322zm-288-82.244h268v164.894l-134.235 102.867-37.978-29.3-95.787-73.572zm-20 82.234v67.352l-46.165-35.322zm-53 52.289 53 40.245v.232h.459l3 2.531 89.552 68.627-146.011 98.411zm24.792 217.477 137.946-92.871 38.189 29.179a10.006 10.006 0 0 0 12.148-.013l38.325-29.295 137.86 93zm389.208-7.449-145.874-98.641 92.408-70.91h.466v-.237l53-40.242z" fill="url(#a)"/><path d="m172.312 146h47.074a10 10 0 0 0 0-20h-47.074a10 10 0 0 0 0 20z" fill="url(#b)"/><g fill="url(#a)"><path d="m172.312 193h167.376a10 10 0 0 0 0-20h-167.376a10 10 0 0 0 0 20z"/><path d="m349.688 230a10 10 0 0 0 -10-10h-167.376a10 10 0 0 0 0 20h167.376a10 10 0 0 0 10-10z"/></g></svg>
