<svg xmlns="http://www.w3.org/2000/svg" width="160.573" height="105.743" viewBox="0 0 160.573 105.743">
    <defs>
        <style>
            .cls-2{fill:#24774e}
        </style>
    </defs>
    <g id="card" transform="translate(-.267 -.416)">
        <rect id="card_bg" width="160.573" height="105.743" fill="#d1f8e5" rx="23" transform="translate(.267 .416)"/>
        <g id="_366974" transform="translate(26.131 34.521)">
            <path id="Rectangle_2130" d="M0 0H44.943V14.972H0z" class="cls-2" transform="translate(0 20.43)"/>
            <path id="Rectangle_2131" d="M0 0H44.943V14.985H0z" class="cls-2"/>
            <path id="Path_10461" d="M386.8 270.624l-.2.04a6.566 6.566 0 0 1-1.455.187c-1.174 0-2.562-.6-2.562-3.429 0-1.455.24-3.39 2.429-3.39h.013a6.57 6.57 0 0 1 1.6.307l.174.054v6.232zm.36-14.1l-.36.067v5.231l-.32-.093-.094-.027a7.359 7.359 0 0 0-1.988-.347c-4.377 0-5.3 3.309-5.3 6.085 0 3.8 2.135 5.992 5.858 5.992a11.875 11.875 0 0 0 3.91-.547 1.728 1.728 0 0 0 1.468-1.895v-15.018c-1.041.187-2.122.374-3.176.547" class="cls-2" transform="translate(-296.91 -238.264)"/>
            <path id="Path_10462" d="M442.421 287.9l-.187.053-.667.174a6.966 6.966 0 0 1-1.615.253c-1.027 0-1.641-.507-1.641-1.374 0-.561.254-1.508 1.935-1.508h2.175v2.4zm-1.535-9.434a14.76 14.76 0 0 0-4.457.774l-1.121.334.374 2.535 1.094-.36a12.865 12.865 0 0 1 3.643-.614c.48 0 1.948 0 1.948 1.588v.694h-2.042c-3.723 0-5.445 1.188-5.445 3.736 0 2.175 1.588 3.483 4.257 3.483a13.74 13.74 0 0 0 2.963-.4l.053-.013.053.013.334.054c1.041.187 2.122.374 3.176.574v-8.327c0-2.7-1.628-4.069-4.831-4.069" class="cls-2" transform="translate(-339.524 -255.447)"/>
            <path id="Path_10463" d="M332.605 287.9l-.187.053-.667.174a6.861 6.861 0 0 1-1.615.253c-1.028 0-1.641-.507-1.641-1.374 0-.561.253-1.508 1.922-1.508h2.175v2.4zm-1.521-9.434a14.693 14.693 0 0 0-4.457.774l-1.121.334.374 2.535 1.094-.36a12.865 12.865 0 0 1 3.643-.614c.48 0 1.948 0 1.948 1.588v.694h-2.042c-3.723 0-5.458 1.188-5.458 3.736 0 2.175 1.588 3.483 4.27 3.483a13.74 13.74 0 0 0 2.962-.4l.053-.013.053.013.32.054c1.054.187 2.122.374 3.176.587v-8.327c.013-2.722-1.615-4.083-4.817-4.083" class="cls-2" transform="translate(-255.636 -255.447)"/>
            <path id="Path_10464" d="M256.988 278.535a9 9 0 0 0-3.616.8l-.133.067-.12-.094a5.475 5.475 0 0 0-3.243-.787 13.264 13.264 0 0 0-3.83.574c-1.134.347-1.575.894-1.575 1.922v9.514h3.55v-8.794l.173-.053a4.52 4.52 0 0 1 1.561-.28 1.4 1.4 0 0 1 1.548 1.615v7.526h3.5v-7.673a2.588 2.588 0 0 0-.107-.774l-.12-.227.24-.106a4.208 4.208 0 0 1 1.735-.36 1.414 1.414 0 0 1 1.548 1.615v7.526h3.483v-7.873c0-2.789-1.495-4.137-4.59-4.137" class="cls-2" transform="translate(-194.07 -255.49)"/>
            <path id="Path_10465" d="M382.08 190.74a12.114 12.114 0 0 1-2.068-.187l-.2-.04v-5.138a2.5 2.5 0 0 0-.094-.734l-.107-.213.227-.094c.053-.027.107-.04.174-.067l.04-.027.24-.08a.338.338 0 0 1 .094-.027 8.291 8.291 0 0 1 1.828-.213h.013c2.175 0 2.428 1.935 2.428 3.39-.013 2.829-1.415 3.43-2.576 3.43m-.013-9.768h-.094c-2.042 0-4.137.561-4.884 1.655a3.339 3.339 0 0 0-.641 1.988v5.3a1.571 1.571 0 0 1-.107.667l-.12.227h-6.445v-3.683h-.014c-.08-3.883-2.375-6.018-5.7-6.018h-3.243c-.133.947-.24 1.615-.374 2.562h3.229c1.695 0 2.589 1.441 2.589 3.656v3.71l-.227-.12a2.445 2.445 0 0 0-.761-.107H359.7c-.107.707-.24 1.628-.387 2.549h17.147c.587-.12 1.268-.227 1.855-.32a9.657 9.657 0 0 0 3.59.654c3.723 0 6.138-2.5 6.138-6.339-.013-3.8-2.348-6.3-5.978-6.379" class="cls-2" transform="translate(-281.799 -180.972)"/>
            <path id="Path_10466" d="M264.272 195.392h.16c3.723 0 5.458-1.228 5.458-4.257 0-2.175-1.588-3.91-4.257-3.91H262.2a1.478 1.478 0 0 1-1.641-1.575c0-.667.253-1.495 1.935-1.495H270c.16-.974.24-1.588.387-2.562h-7.793c-3.63 0-5.458 1.521-5.458 4.057 0 2.509 1.588 3.816 4.257 3.816h3.429a1.62 1.62 0 0 1 1.641 1.668 1.676 1.676 0 0 1-1.922 1.721h-.574l-10.982-.027h-2c-1.695 0-2.882-.961-2.882-3.189v-1.535c0-2.322.921-3.763 2.882-3.763h3.256c.147-.987.24-1.615.374-2.549h-4.444c-3.323 0-5.618 2.229-5.7 6.112v1.735c.08 3.883 2.375 5.738 5.7 5.738h3.243l5.951.013h4.911z" class="cls-2" transform="translate(-194.068 -181.447)"/>
        </g>
    </g>
</svg>
