<svg xmlns="http://www.w3.org/2000/svg" width="143.144" height="96.622" viewBox="0 0 143.144 96.622">
    <defs>
        <style>
            .cls-6{fill:#f69e1e}
        </style>
    </defs>
    <g id="mastercard-light-large" transform="translate(.009 .097)">
        <rect id="card_bg" width="143.144" height="96.622" fill="#dfe3e8" rx="14" transform="translate(-.009 -.097)"/>
        <g id="mastercard" transform="translate(12.355 8.464)">
            <path id="Rectangle-2" fill="#f26122" d="M0 0H31.227V51.016H0z" transform="translate(43.584 13.641)"/>
            <path id="Path" fill="#ea1d25" d="M40.277 32.451A32.359 32.359 0 0 1 52.511 6.943a32.451 32.451 0 1 0 0 51.016 32.359 32.359 0 0 1-12.234-25.508z" transform="translate(6.672 6.698)"/>
            <path id="Shape" d="M1.53 1.258h-.212V0h.306l.4.886L2.387 0h.306v1.252h-.215V.306l-.336.826H1.9L1.53.306v.953zm-.919 0H.429V.215H0V0h1.071v.215h-.46v1.04z" class="cls-6" transform="translate(107.935 57.989)"/>
            <path id="Path-2" d="M52.484 32.43A32.451 32.451 0 0 1 0 57.938 32.451 32.451 0 0 0 5.444 12.4 31.809 31.809 0 0 0 0 6.922 32.451 32.451 0 0 1 52.484 32.43z" class="cls-6" transform="translate(59.182 6.719)"/>
        </g>
    </g>
</svg>
