<svg xmlns="http://www.w3.org/2000/svg" width="266.588" height="266.588" viewBox="0 0 266.588 266.588">
    <g>
        <path fill="#62b554" d="M268.588 135.294A133.294 133.294 0 1 1 135.294 2a133.295 133.295 0 0 1 133.294 133.294z" transform="translate(-2 -2)"/>
        <path fill="#fff" fill-rule="evenodd" d="M135.971 11.5a13.328 13.328 0 0 1 .82 18.833l-73.312 79.979a13.329 13.329 0 0 1-19.652 0L10.5 73.961a13.33 13.33 0 0 1 19.655-18.015l23.5 25.634 63.487-69.257a13.328 13.328 0 0 1 18.829-.823z" transform="translate(-2 -2) translate(61.647 73.976)"/>
    </g>
</svg>
