<svg xmlns="http://www.w3.org/2000/svg" width="233.813" height="233.813" viewBox="0 0 233.813 233.813">
    <g fill="#2eafa3">
        <path d="M235.813 118.907A116.907 116.907 0 1 1 118.907 2a116.907 116.907 0 0 1 116.906 116.907z" opacity="0.5" transform="translate(-2 -2)"/>
        <path fill-rule="evenodd" d="M120.115 11.073a11.69 11.69 0 0 1 .719 16.518l-64.3 70.144a11.691 11.691 0 0 1-17.236 0L10.073 65.851a11.691 11.691 0 0 1 17.236-15.8l20.608 22.483L103.6 11.791a11.69 11.69 0 0 1 16.515-.718z" transform="translate(-2 -2) translate(53.453 64.144)"/>
    </g>
</svg>
