<svg xmlns="http://www.w3.org/2000/svg" width="41.634" height="38.761" viewBox="0 0 41.634 38.761">
    <path fill="#fff" fill-rule="evenodd" d="M720.866 372.983c-.682-1.633-1.2-1.694-2.231-1.736-.352-.02-.743-.041-1.178-.041a5.1 5.1 0 0 0-3.6 1.26 11.226 11.226 0 0 0-3.6 8.557c0 5.043 3.678 9.921 4.174 10.6.517.681 7.17 11.181 17.5 15.46 8.079 3.348 10.476 3.038 12.315 2.645 2.686-.579 6.054-2.564 6.9-4.961s.847-4.444.6-4.878-.93-.681-1.963-1.2-6.054-3-7-3.328a1.961 1.961 0 0 0-2.52.765 43.118 43.118 0 0 1-2.748 3.638 2.221 2.221 0 0 1-2.48.393 25.9 25.9 0 0 1-8.245-5.085 31.28 31.28 0 0 1-5.7-7.088c-.6-1.033-.062-1.633.413-2.191.517-.641 1.012-1.1 1.529-1.7a6.164 6.164 0 0 0 1.136-1.612 2.1 2.1 0 0 0-.145-1.9c-.243-.508-2.309-5.552-3.157-7.598z" transform="translate(-710.266 -371.206)"/>
</svg>
