<svg xmlns="http://www.w3.org/2000/svg" width="31.9" height="28.105" viewBox="0 0 31.9 28.105">
    <path fill="#3a98b2" d="M31.647 10.026C32.427 21.737 23.84 31.1 12.91 31.1a24.886 24.886 0 0 1-10.486-1.92.672.672 0 0 1 .336-1.276c3.638-.241 6.649-1.11 8.588-3.05 4.684-4.684 5.465-6.246 6.659-12.454A7.028 7.028 0 0 1 30.36 5.972l2.681-.383a.781.781 0 0 1 .76 1.206z" opacity="0.25" transform="translate(-2.034 -3)"/>
    <path fill="#3a98b2" d="M11.209 23.909C2.752 21.09 1.293 10.636 2.812 5.183a.725.725 0 0 1 1.346-.07c2.594 4.436 7.527 6.913 13.709 6.342 9.733 0 7.394 17.138-6.658 12.454z" transform="translate(-1.894 -2.05)"/>
</svg>
