<svg xmlns="http://www.w3.org/2000/svg" width="155.778" height="106.385" viewBox="0 0 155.778 106.385">
    <g transform="translate(.09 -.074)">
        <rect width="155.778" height="106.385" fill="#d3f0fc" rx="25" transform="translate(-.09 .074)"/>
        <path fill="#2a2a6c" d="M55.13 30.849a23.094 23.094 0 0 1-8.437-1.59l1.394-6.48a16.263 16.263 0 0 0 7.7 1.946h.205c2.307-.033 4.634-.958 4.634-2.948.031-1.269-1.058-2.279-4.019-3.727-2.907-1.421-6.772-3.811-6.772-8.134C49.836 4.077 55.166 0 62.8 0a20.783 20.783 0 0 1 7.259 1.33L68.7 7.81a14.621 14.621 0 0 0-6.221-1.4c-.475 0-.956.024-1.428.07-2.238.3-3.24 1.467-3.24 2.5 0 1.256 1.605 2.1 3.638 3.161 3.225 1.689 7.238 3.79 7.217 8.732l.163-.26c-.032 6.221-5.338 10.239-13.511 10.239zm21.47-.258h-8.163L80.069 2.82a3.521 3.521 0 0 1 3.24-2.2h6.48l6.284 29.97h-7.191l-.939-4.471h-9.755l-1.588 4.47zm7.713-21.874L80.23 19.959h6.448zM41.152 30.493h-7.778L39.857.519h7.775l-6.48 29.971zm-17.011-.1h-8.457L9.5 6.448a3.258 3.258 0 0 0-1.854-2.625A32.134 32.134 0 0 0 0 1.295L.2.42h13.183a3.623 3.623 0 0 1 3.6 3.048L20.219 20.8 28.288.42h8.425L24.142 30.392z" transform="translate(31.968 37.47)"/>
    </g>
</svg>
