<svg xmlns="http://www.w3.org/2000/svg" id="_002-price-tag" width="123.283" height="123.283"><defs><style>.cls-1{fill:#ff8659}.cls-2{fill:#ff6326}.cls-5{fill:#ff7038}.cls-6{fill:#ff405c}</style></defs><path id="Path_13462" d="M248.217 170.354h-52.974A13.258 13.258 0 01182 157.111v-62.6a3.613 3.613 0 01.722-2.167l21.671-28.894a3.612 3.612 0 012.89-1.45h28.895a3.612 3.612 0 012.889 1.445l21.671 28.894a3.613 3.613 0 01.722 2.167v62.6a13.258 13.258 0 01-13.243 13.248z" class="cls-1" transform="translate(-138.176 -47.071)"/><path id="Path_13463" d="M386.008 92.339l-21.671-28.894a3.612 3.612 0 00-2.89-1.445H347v108.354h26.487a13.258 13.258 0 0013.243-13.243v-62.6a3.613 3.613 0 00-.722-2.172z" class="cls-2" transform="translate(-263.447 -47.071)"/><path id="Path_13464" fill="#fff16b" d="M41.33 106.622L3.872 69.164a13.258 13.258 0 010-18.729L48.14 6.167a3.613 3.613 0 012.043-1.022L85.939.037A3.611 3.611 0 0189 1.059l20.432 20.432a3.612 3.612 0 011.022 3.065l-5.105 35.754a3.611 3.611 0 01-1.022 2.043l-44.268 44.269a13.259 13.259 0 01-18.729 0z" transform="translate(.001 -.001)"/><path id="Path_13465" fill="#ffb454" d="M176.613 95.857L181.72 60.1a3.611 3.611 0 00-1.022-3.065l-10.215-10.213-76.618 76.618 18.729 18.729a13.258 13.258 0 0018.729 0L175.591 97.9a3.613 3.613 0 001.021-2.043z" transform="translate(-71.263 -35.548)"/><path id="Path_13466" d="M175.381 170.382a3.611 3.611 0 01-.874-3.7l17.026-51.082a3.612 3.612 0 116.853 2.284l-17.026 51.084a3.613 3.613 0 01-5.979 1.414z" class="cls-5" transform="translate(-132.346 -85.893)"/><path id="Path_13467" d="M290.1 192.375a10.84 10.84 0 100 15.331 10.853 10.853 0 000-15.331zm-5.11 10.22a3.613 3.613 0 110-5.11 3.618 3.618 0 01.004 5.115z" class="cls-6" transform="translate(-206.205 -143.646)"/><path id="Path_13468" d="M106.257 192.375a10.84 10.84 0 100 15.331 10.853 10.853 0 000-15.331zm-5.11 10.22a3.613 3.613 0 110-5.11 3.618 3.618 0 010 5.115z" class="cls-5" transform="translate(-66.626 -143.646)"/><path id="Path_13469" d="M181.359 242.879l10.8-32.392-11.421 11.421-6.229 18.687a3.612 3.612 0 006.853 2.284z" class="cls-6" transform="translate(-132.346 -159.804)"/><g id="Group_9465" transform="translate(83.896)"><path id="Path_13470" fill="#00429b" d="M373.963 1.058a3.612 3.612 0 00-5.108 0L348.424 21.49l5.108 5.108 20.431-20.432a3.611 3.611 0 000-5.108z" transform="translate(-348.424)"/><path id="Path_13471" fill="#002659" d="M382.015 9.5a3.611 3.611 0 000-5.108L359.03 27.378l2.554 2.554z" transform="translate(-356.476 -3.335)"/></g><g id="Group_9466" transform="translate(77.731 15.323)"><path id="Path_13472" d="M336.645 81.079a3.6 3.6 0 01-2.554-1.058L323.875 69.8a3.612 3.612 0 015.108-5.108L339.2 74.913a3.612 3.612 0 01-2.554 6.166z" class="cls-1" transform="translate(-322.818 -63.639)"/><path id="Path_13473" d="M358.641 94.354l-5.108-5.108-5.108 5.108 5.108 5.108a3.612 3.612 0 005.108-5.108z" class="cls-2" transform="translate(-342.259 -83.08)"/></g></svg>