<svg xmlns="http://www.w3.org/2000/svg" width="39.284" height="39.284"><path fill="#12131a" fill-rule="evenodd" d="M.725 8.921a9.449 9.449 0 018.2-8.2A82.67 82.67 0 0119.642 0a82.674 82.674 0 0110.721.725 9.449 9.449 0 018.2 8.2 82.656 82.656 0 01.725 10.721 82.66 82.66 0 01-.725 10.721 9.449 9.449 0 01-8.2 8.2 82.66 82.66 0 01-10.721.725 82.656 82.656 0 01-10.721-.725 9.449 9.449 0 01-8.2-8.2A82.674 82.674 0 010 19.642 82.67 82.67 0 01.725 8.921z" opacity=".25"/><path fill="#12131a" fill-rule="evenodd" d="M23.987 11.36a1.968 1.968 0 010 2.784l-5.5 5.5 5.5 5.5a1.969 1.969 0 01-2.784 2.784l-6.889-6.895a1.968 1.968 0 010-2.784l6.889-6.889a1.968 1.968 0 012.784 0z"/></svg>