<svg xmlns="http://www.w3.org/2000/svg" width="39.284" height="39.284" viewBox="0 0 39.284 39.284">
    <path fill="#12131a" fill-rule="evenodd" d="M2.725 10.921a9.449 9.449 0 0 1 8.2-8.2A82.67 82.67 0 0 1 21.642 2a82.674 82.674 0 0 1 10.721.725 9.449 9.449 0 0 1 8.2 8.2 82.656 82.656 0 0 1 .725 10.721 82.66 82.66 0 0 1-.725 10.721 9.449 9.449 0 0 1-8.2 8.2 82.66 82.66 0 0 1-10.721.725 82.656 82.656 0 0 1-10.721-.725 9.449 9.449 0 0 1-8.2-8.2A82.674 82.674 0 0 1 2 21.642a82.67 82.67 0 0 1 .725-10.721z" opacity="0.25" transform="translate(-2 -2)"/>
    <path fill="#12131a" fill-rule="evenodd" d="M19.249 8.076a1.968 1.968 0 0 1 0 2.784l-5.5 5.5 5.5 5.5a1.968 1.968 0 0 1-2.784 2.784l-6.889-6.895a1.968 1.968 0 0 1 0-2.784l6.889-6.889a1.968 1.968 0 0 1 2.784 0z" transform="translate(4.738 3.284)"/>
</svg>
