<svg xmlns="http://www.w3.org/2000/svg" id="_002-electric-car" width="119.381" height="48.499"><defs><style>.cls-1{fill:#5d9cec}.cls-3{fill:#e6e9ed}.cls-4{fill:#ccd1d9}.cls-5{fill:#656d78}</style></defs><g id="Group_9531" transform="translate(35.441 1.865)"><path id="Path_13552" d="M144 256v11.192l11.192-1.865z" class="cls-1" transform="translate(-104.828 -256)"/><path id="Path_13553" d="M192 267.192h39.172V256h-20.519c-3.73 0-18.653 11.192-18.653 11.192z" class="cls-1" transform="translate(-192 -256)"/></g><path id="Path_13554" fill="#4a89dc" d="M250.653 256h11.192c-3.731 0-18.653 11.192-18.653 11.192H232S246.923 256 250.653 256z" transform="translate(-196.559 -254.135)"/><path id="Path_13555" d="M.2 271.415l1.255-2.515-.9-.879a1.865 1.865 0 01.608-3.059c.388-.159 9.731-3.843 33.591-5.721C38.823 256.209 50.205 248 54.094 248h22.384c7.351 0 26.611 9.37 30.284 11.192h8.888a1.864 1.864 0 011.865 1.865v4.824l1.319 1.319a1.857 1.857 0 01.547 1.319v13.057a1.857 1.857 0 01-.547 1.319l-5.594 5.594a1.888 1.888 0 01-1.321.548H1.865A1.864 1.864 0 010 287.172v-14.923a1.87 1.87 0 01.2-.834zm72.552-19.685H54.094c-1.681 0-8.974 4.583-15.508 9.327h34.162zm13.048 7.462l-8.916-7.43c-.134-.007-.289-.032-.41-.032v9.015z" class="cls-3" transform="translate(0 -248)"/><g id="Group_9532" transform="translate(0 15.941)"><path id="Path_13556" d="M494 316.4a.007.007 0 00-.006 0c-.052-.05-.041-.041.006 0z" class="cls-4" transform="translate(-489.796 -316.367)"/><path id="Path_13557" d="M472.2 323.971l1.259-2.516-.9-.879a1.865 1.865 0 01.608-3.059c.118-.048 1.084-.427 3.033-.981l4.716 4.921-1.259 2.516a1.856 1.856 0 00-.2.832v14.923a1.864 1.864 0 001.865 1.865h-7.461a1.864 1.864 0 01-1.861-1.865V324.8a1.87 1.87 0 01.2-.829z" class="cls-4" transform="translate(-472 -316.497)"/></g><path id="Path_13558" d="M372.125 352a12.139 12.139 0 0112.125 12.125 11.887 11.887 0 01-.461 3.3 12.121 12.121 0 01-23.322.015 11.867 11.867 0 01-.466-3.318A12.139 12.139 0 01372.125 352zm0 7.387a4.663 4.663 0 104.663 4.663 4.665 4.665 0 00-4.663-4.663z" class="cls-5" transform="translate(-348.808 -327.751)"/><circle id="Ellipse_51" cx="5.596" cy="5.596" r="5.596" class="cls-3" transform="translate(17.721 30.703)"/><path id="Path_13559" d="M68.125 352a12.139 12.139 0 0112.125 12.125 11.887 11.887 0 01-.461 3.3 12.121 12.121 0 01-23.322.015 11.866 11.866 0 01-.467-3.315A12.139 12.139 0 0168.125 352zm0 7.387a4.663 4.663 0 104.663 4.663 4.665 4.665 0 00-4.663-4.663z" class="cls-5" transform="translate(26.074 -327.751)"/><circle id="Ellipse_52" cx="5.596" cy="5.596" r="5.596" class="cls-3" transform="translate(88.603 30.703)"/><path id="Path_13560" d="M185.865 331.731h3.735a1.865 1.865 0 000-3.731h-3.731a1.865 1.865 0 100 3.731z" class="cls-4" transform="translate(-114.983 -309.347)"/></svg>