<svg xmlns="http://www.w3.org/2000/svg" width="62" height="50"><defs><style>.cls-2{fill:#545c66}.cls-3{fill:#e6e9ed}.cls-4{fill:#656d78}.cls-5{fill:#fff}.cls-6{fill:#ccd1d9}</style></defs><g id="_003-car-1" transform="translate(-1 -7)"><g id="Group_9533"><path id="Path_13561" fill="#5d9cec" d="M33.89 25.01H9v-.02L13.17 10h37.66L55 24.99v.02z"/></g><g id="Group_9534"><path id="Path_13562" d="M30 23H18a1 1 0 010-2h12a1 1 0 010 2z" class="cls-2"/></g><g id="Group_9535"><path id="Path_13563" d="M50.015 23h-12a1 1 0 010-2h12a1 1 0 010 2z" class="cls-2"/></g><g id="Group_9536"><path id="Path_13564" d="M53 7l5 17.99v.02h-3v-.02L50.83 10H13.17L9 24.99v.02H6v-.02L11 7z" class="cls-3"/></g><g id="Group_9539"><g id="Group_9537"><path id="Path_13565" d="M60 46a1 1 0 011 1v9a1 1 0 01-1 1H50a1 1 0 01-1-1v-9a1 1 0 011-1z" class="cls-4"/></g><g id="Group_9538"><path id="Path_13566" d="M14 46a1 1 0 011 1v9a1 1 0 01-1 1H4a1 1 0 01-1-1v-9a1 1 0 011-1z" class="cls-4"/></g></g><g id="Group_9540"><path id="Path_13567" d="M51 37h8a5 5 0 01-5 5h-8a5 5 0 015-5z" class="cls-5"/></g><g id="Group_9541"><path id="Path_13568" d="M19 42h-9a5 5 0 01-5-5h9a5 5 0 015 5z" class="cls-5"/></g><g id="Group_9542"><path id="Path_13569" d="M41.19 40.01a5.884 5.884 0 00.81-3H22a5.884 5.884 0 00.81 3 5.986 5.986 0 005.19 3h8a5.985 5.985 0 005.19-3zM63 32v16H1V32zm-4 5h-8a5 5 0 00-5 5h8a5 5 0 005-5zm-49 5h9a5 5 0 00-5-5H5a5 5 0 005 5z" class="cls-3"/></g><path id="Path_13570" d="M22 37.01a5.884 5.884 0 00.81 3 5.986 5.986 0 005.19 3h8a5.985 5.985 0 005.19-3 5.884 5.884 0 00.81-3z" class="cls-5"/><g id="Group_9543"><path id="Path_13571" d="M11.871 27.009a1 1 0 01-.292-1.956L24.7 21.044a1 1 0 01.584 1.912l-13.121 4.009a.99.99 0 01-.292.044z" class="cls-4"/></g><g id="Group_9544"><path id="Path_13572" d="M31.891 27.009a1 1 0 01-.292-1.956l13.125-4.009a1 1 0 11.584 1.912l-13.125 4.009a1 1 0 01-.292.044z" class="cls-4"/></g><g id="Group_9545"><path id="Path_13573" d="M58 25.01L63 32H1l5-6.99h52z" class="cls-6"/></g><path id="Path_13574" d="M22.558 39.51a5.565 5.565 0 00.252.5c.1.174.216.338.333.5h17.715c.117-.162.232-.326.333-.5a5.565 5.565 0 00.252-.5z" class="cls-4"/><g id="Group_9546"><path id="Path_13575" d="M62 49H2a1 1 0 010-2h60a1 1 0 010 2z" class="cls-6"/></g></g></svg>