<svg xmlns="http://www.w3.org/2000/svg" width="119.381" height="48.499"><defs><style>.cls-1{fill:#5d9cec}.cls-3{fill:#e6e9ed}.cls-4{fill:#ccd1d9}.cls-5{fill:#656d78}</style></defs><g id="_002-electric-car" transform="translate(0 -248)"><g id="Group_9531" transform="translate(33.576 249.865)"><path id="Path_13552" d="M155.192 256v11.192L144 265.327z" class="cls-1" transform="translate(-144 -256)"/><path id="Path_13553" d="M231.172 267.192H192V256h20.519c3.73 0 18.653 11.192 18.653 11.192z" class="cls-1" transform="translate(-180.808 -256)"/></g><path id="Path_13554" fill="#4a89dc" d="M243.192 256H232c3.731 0 18.653 11.192 18.653 11.192h11.192S246.923 256 243.192 256z" transform="translate(-177.905 -6.135)"/><path id="Path_13555" d="M119.185 271.415l-1.259-2.516.9-.879a1.865 1.865 0 00-.608-3.059c-.388-.159-9.731-3.843-33.591-5.721C80.558 256.209 69.176 248 65.286 248H42.9c-7.351 0-26.611 9.37-30.284 11.192H3.731a1.864 1.864 0 00-1.865 1.865v4.824L.547 267.2A1.857 1.857 0 000 268.519v13.057a1.857 1.857 0 00.547 1.319l5.594 5.594a1.888 1.888 0 001.321.548h110.054a1.864 1.864 0 001.865-1.865v-14.923a1.87 1.87 0 00-.196-.834zm-72.552-19.684h18.653c1.681 0 8.974 4.583 15.508 9.327H46.633zm-13.057 7.461l8.916-7.43c.134-.007.289-.032.41-.032v9.015z" class="cls-3"/><g id="Group_9532" transform="translate(110.054 263.941)"><path id="Path_13556" d="M493.96 316.4a.007.007 0 01.006 0c.054-.05.043-.041-.006 0z" class="cls-4" transform="translate(-488.84 -316.367)"/><path id="Path_13557" d="M481.131 323.971l-1.259-2.516.9-.879a1.865 1.865 0 00-.608-3.059c-.118-.048-1.084-.427-3.033-.981l-4.716 4.921 1.259 2.516a1.856 1.856 0 01.2.832v14.923a1.864 1.864 0 01-1.874 1.865h7.461a1.864 1.864 0 001.865-1.865V324.8a1.87 1.87 0 00-.195-.829z" class="cls-4" transform="translate(-472 -316.497)"/></g><path id="Path_13558" d="M372.125 352A12.139 12.139 0 00360 364.125a11.887 11.887 0 00.461 3.3 12.121 12.121 0 0023.322.015 11.867 11.867 0 00.466-3.318A12.139 12.139 0 00372.125 352zm0 7.387a4.663 4.663 0 11-4.663 4.663 4.665 4.665 0 014.663-4.663z" class="cls-5" transform="translate(-276.06 -79.751)"/><circle id="Ellipse_51" cx="5.596" cy="5.596" r="5.596" class="cls-3" transform="translate(90.468 278.703)"/><path id="Path_13559" d="M68.125 352A12.139 12.139 0 0056 364.125a11.887 11.887 0 00.461 3.3 12.121 12.121 0 0023.322.015 11.866 11.866 0 00.466-3.318A12.139 12.139 0 0068.125 352zm0 7.387a4.663 4.663 0 11-4.663 4.663 4.665 4.665 0 014.663-4.663z" class="cls-5" transform="translate(-42.943 -79.751)"/><circle id="Ellipse_52" cx="5.596" cy="5.596" r="5.596" class="cls-3" transform="translate(19.586 278.703)"/><path id="Path_13560" d="M189.6 331.731h-3.731a1.865 1.865 0 110-3.731h3.731a1.865 1.865 0 110 3.731z" class="cls-4" transform="translate(-141.097 -61.347)"/></g></svg>