<svg xmlns="http://www.w3.org/2000/svg" viewBox="0 2 98 98" width="512" height="512"><linearGradient id="a" gradientUnits="userSpaceOnUse" x1="49.1" y1="94.25" x2="49.1" y2="11.763" gradientTransform="matrix(1 0 0 -1 0 104)"><stop offset="0" stop-color="#00efd1"/><stop offset="1" stop-color="#00acea"/></linearGradient><path d="M63.8 26.2v-6.5c0-2.8-2.2-5-5-5H39.2c-2.8 0-5 2.2-5 5v6.5H13.3v6h6.3l5 56.4c.1 1.5 1.4 2.7 3 2.7h42.9c1.6 0 2.9-1.2 3-2.7l5-56.4h6.4v-6H63.8zm-23.6-5.5h17.6v5.5H40.2v-5.5zm27.5 64.6H30.2l-4.7-53.1h46.7l-4.5 53.1z" fill="url(#a)"/><linearGradient id="b" gradientUnits="userSpaceOnUse" x1="59.95" y1="94.25" x2="59.95" y2="11.763" gradientTransform="matrix(1 0 0 -1 0 104)"><stop offset="0" stop-color="#00efd1"/><stop offset="1" stop-color="#00acea"/></linearGradient><path fill="url(#b)" d="M63.6 41.1l-6-.2-1.3 35.5 6 .2z"/><linearGradient id="c" gradientUnits="userSpaceOnUse" x1="38.05" y1="94.25" x2="38.05" y2="11.763" gradientTransform="matrix(1 0 0 -1 0 104)"><stop offset="0" stop-color="#00efd1"/><stop offset="1" stop-color="#00acea"/></linearGradient><path fill="url(#c)" d="M41.7 76.4l-1.3-35.5-6 .2 1.3 35.5z"/><linearGradient id="d" gradientUnits="userSpaceOnUse" x1="49" y1="94.25" x2="49" y2="11.763" gradientTransform="matrix(1 0 0 -1 0 104)"><stop offset="0" stop-color="#00efd1"/><stop offset="1" stop-color="#00acea"/></linearGradient><path fill="url(#d)" d="M46 41h6v35.5h-6z"/></svg>