<svg xmlns="http://www.w3.org/2000/svg" xmlns:xlink="http://www.w3.org/1999/xlink" width="512" height="512"><linearGradient id="a" gradientUnits="userSpaceOnUse" x1="256" x2="256" y1="14" y2="506.065"><stop offset="0" stop-color="#00efd1"/><stop offset="1" stop-color="#00acea"/></linearGradient><linearGradient id="b" x1="195.849" x2="195.849" xlink:href="#a" y1="14" y2="506.065"/><path d="M478.5 185.278L410 137.905v-67.85C410 64.532 405.989 60 400.467 60H111.533C106.01 60 102 64.532 102 70.055v67.837l-68.5 47.387A10.194 10.194 0 0029 193.5v248.45A9.99 9.99 0 0038.933 452h434.134A9.99 9.99 0 00483 441.945V193.5a10.193 10.193 0 00-4.5-8.222zM410 162.244l46.174 32.028L410 229.594zM122 80h268v164.894L255.765 347.761l-37.978-29.3L122 244.889zm-20 82.234v67.352l-46.165-35.322zm-53 52.289l53 40.245V255h.459l3 2.531 89.552 68.627L49 424.569zM73.792 432l137.946-92.871 38.189 29.179a10.006 10.006 0 0012.148-.013L300.4 339l137.86 93zM463 424.551L317.126 325.91 409.534 255H410v-.237l53-40.242z" fill="url(#a)"/><path d="M172.312 146h47.074a10 10 0 000-20h-47.074a10 10 0 000 20z" fill="url(#b)"/><g fill="url(#a)"><path d="M172.312 193h167.376a10 10 0 000-20H172.312a10 10 0 000 20zM349.688 230a10 10 0 00-10-10H172.312a10 10 0 000 20h167.376a10 10 0 0010-10z"/></g></svg>