<svg xmlns="http://www.w3.org/2000/svg" id="Iconly_Bulk_Calendar" width="22.876" height="25.417"><defs><style>.cls-2{fill:#277691}</style></defs><g id="Calendar"><path id="Fill-1" fill="#277691" d="M7.558 3.469h7.807V1.651H7.558zM5.782 1.726v.009a8.736 8.736 0 00-1.8.359v-.007c-.04.017-.075.025-.109.042a.659.659 0 00-.136.05 4.842 4.842 0 00-.378.143c-.064.025-.129.058-.193.083-.088.042-.184.092-.273.133l-.218.126c-.064.033-.121.075-.185.113a5.206 5.206 0 00-.907.741l-.016.017c-.1.113-.193.217-.281.326l-.016.016A6.733 6.733 0 00.009 8.159v.487h1.76v-.491c0-2.142.682-3.476 2.2-4.159a6.027 6.027 0 011.816-.452H5.8v-1.81zM21.61 3.868l-.01-.016a3.851 3.851 0 00-.29-.326l-.01-.016a5.506 5.506 0 00-.915-.741c-.057-.034-.109-.076-.177-.113s-.145-.084-.226-.126-.177-.092-.273-.133c-.056-.025-.121-.058-.192-.083a5.663 5.663 0 00-.37-.143c-.048-.016-.088-.033-.136-.05s-.074-.026-.109-.042v.009a8.837 8.837 0 00-1.8-.359v1.8a5.818 5.818 0 011.79.452 3.346 3.346 0 011.68 1.534 5.607 5.607 0 01.531 2.625v.5h1.76v-.485a6.738 6.738 0 00-1.253-4.287z" opacity=".4" transform="translate(0 .447)"/><path id="Fill-4" d="M13.89.911v4.005a.915.915 0 01-1.83 0v-4a.915.915 0 011.83-.009z" class="cls-2" transform="translate(3.267)"/><path id="Fill-6" d="M6.33.924v4a.915.915 0 11-1.83 0v-4a.915.915 0 111.83 0" class="cls-2" transform="translate(1.219 .002)"/><path id="Fill-8" d="M22.876 7.156v9.855c0 4.3-2.4 6.469-7.156 6.469H7.145C2.4 23.479 0 21.308 0 17.011V7.156zm-6.207 9.011a1.066 1.066 0 00-1.058 1.08 1.081 1.081 0 001.058 1.08 1.08 1.08 0 000-2.16zm-5.225-.011a1.086 1.086 0 000 2.171 1.067 1.067 0 001.047-1.091 1.086 1.086 0 00-1.047-1.08zm-5.236 0a1.086 1.086 0 000 2.171 1.086 1.086 0 000-2.171zm10.462-4.6a1.08 1.08 0 101.047 1.08 1.057 1.057 0 00-1.048-1.081zm-5.225-.011a1.086 1.086 0 000 2.171 1.067 1.067 0 001.047-1.091 1.079 1.079 0 00-1.047-1.08zm-5.225 0a1.076 1.076 0 00-1.06 1.089 1.048 1.048 0 101.058-1.091z" class="cls-2" transform="translate(0 1.938)"/></g></svg>