<svg xmlns="http://www.w3.org/2000/svg" viewBox="0 0 477.112 477.112"><linearGradient id="a" gradientUnits="userSpaceOnUse" x1="-28.319" y1="557.986" x2="-28.319" y2="618.787" gradientTransform="matrix(8 0 0 -8 465.108 4941)"><stop offset="0" stop-color="#006df0"/><stop offset="1" stop-color="#00e7f0"/></linearGradient><path d="M238.556 0c-92.74.106-167.894 75.26-168 168 0 90.056 155.064 292.32 161.664 300.88l6.336 8.232 6.336-8.232c6.6-8.56 161.664-210.824 161.664-300.88-.106-92.74-75.26-167.894-168-168zm0 450.728c-29.528-39.528-152-207.896-152-282.728 0-83.947 68.053-152 152-152s152 68.053 152 152c0 74.816-122.472 243.2-152 282.728z" fill="url(#a)"/><linearGradient id="b" gradientUnits="userSpaceOnUse" x1="-28.319" y1="558.035" x2="-28.319" y2="618.838" gradientTransform="matrix(8 0 0 -8 465.108 4941)"><stop offset="0" stop-color="#006df0"/><stop offset="1" stop-color="#00e7f0"/></linearGradient><path d="M238.556 112c-30.928 0-56 25.072-56 56s25.072 56 56 56 56-25.072 56-56c-.035-30.913-25.087-55.965-56-56zm0 96c-22.091 0-40-17.909-40-40s17.909-40 40-40 40 17.909 40 40c-.026 22.08-17.92 39.974-40 40z" fill="url(#b)"/></svg>