<svg xmlns="http://www.w3.org/2000/svg" viewBox="0 0 512.001 512.001"><g fill="#136ef1"><path d="M467.013 466.922c-3.84 0-7.679-1.464-10.608-4.395L350.319 356.441c-5.859-5.859-5.859-15.358 0-21.217 5.858-5.859 15.358-5.859 21.217 0L477.622 441.31c5.859 5.859 5.859 15.358 0 21.217a14.954 14.954 0 01-10.609 4.395zM166.086 165.89a14.95 14.95 0 01-10.608-4.394L49.391 55.409c-5.859-5.859-5.859-15.358 0-21.217 5.858-5.858 15.358-5.858 21.217 0l106.086 106.086c5.859 5.859 5.859 15.358 0 21.217a14.95 14.95 0 01-10.608 4.395z"/></g><path d="M360.928 511.994c-43.353 0-84.111-16.882-114.766-47.538L47.46 265.65c-63.28-63.279-63.28-166.246.003-229.529l23.192-22.992c17.503-17.502 46.057-17.502 63.605.046l63.635 63.435c8.518 8.518 13.2 19.82 13.2 31.842s-4.682 23.325-13.183 31.826L168.98 169.21c-6.44 6.44-9.987 15.003-9.987 24.111s3.547 17.67 9.987 24.111l125.407 125.513c13.29 13.285 34.924 13.289 48.217-.005l28.932-28.932c17.548-17.548 46.103-17.549 63.652 0l63.652 63.652c17.548 17.548 17.548 46.102 0 63.651l-23.147 23.146c-30.655 30.655-71.413 47.537-114.765 47.537zm-258.5-481.986a14.947 14.947 0 00-10.603 4.385L68.634 57.384c-51.537 51.538-51.537 135.469.046 187.051l198.702 198.807c24.985 24.985 58.208 38.746 93.546 38.746s68.561-13.762 93.549-38.749l23.146-23.146c5.849-5.85 5.849-15.368 0-21.217l-63.652-63.652c-5.85-5.85-15.368-5.849-21.218 0l-28.932 28.932c-12.107 12.107-28.205 18.776-45.328 18.776-17.123 0-33.22-6.668-45.328-18.776l-.004-.004-125.402-125.508c-12.103-12.103-18.772-28.2-18.772-45.324s6.668-33.22 18.776-45.328l28.932-28.932a14.903 14.903 0 004.394-10.609c0-4.008-1.56-7.774-4.394-10.608L113.06 34.408a14.995 14.995 0 00-10.632-4.4z" fill="#17ace8"/></svg>