<svg xmlns="http://www.w3.org/2000/svg" width="31.9" height="28.105"><path fill="#3a98b2" d="M29.613 7.026c.78 11.711-7.807 21.074-18.737 21.074A24.886 24.886 0 01.39 26.18a.672.672 0 01.336-1.276c3.638-.241 6.649-1.11 8.588-3.05 4.684-4.684 5.465-6.246 6.659-12.454a7.028 7.028 0 0112.353-6.428l2.681-.383a.781.781 0 01.76 1.206z" opacity=".25"/><path fill="#3a98b2" d="M9.315 21.859C.858 19.04-.601 8.586.918 3.133a.725.725 0 011.346-.07c2.594 4.436 7.527 6.913 13.709 6.342 9.733 0 7.394 17.138-6.658 12.454z"/></svg>