<svg xmlns="http://www.w3.org/2000/svg" width="155.778" height="106.385"><g transform="translate(.09 -.074)"><rect width="155.778" height="106.385" fill="#d3f0fc" rx="25" transform="translate(-.09 .074)"/><path fill="#2a2a6c" d="M87.098 68.319a23.094 23.094 0 01-8.437-1.59l1.394-6.48a16.263 16.263 0 007.7 1.946h.205c2.307-.033 4.634-.958 4.634-2.948.031-1.269-1.058-2.279-4.019-3.727-2.907-1.421-6.772-3.811-6.772-8.134.001-5.839 5.331-9.916 12.965-9.916a20.783 20.783 0 017.259 1.33l-1.359 6.48a14.621 14.621 0 00-6.221-1.4c-.475 0-.956.024-1.428.07-2.238.3-3.24 1.467-3.24 2.5 0 1.256 1.605 2.1 3.638 3.161 3.225 1.689 7.238 3.79 7.217 8.732l.163-.26c-.032 6.221-5.338 10.239-13.511 10.239zm21.47-.258h-8.163l11.632-27.771a3.521 3.521 0 013.24-2.2h6.48l6.284 29.97h-7.191l-.939-4.471h-9.755l-1.588 4.47zm7.713-21.874l-4.083 11.242h6.448zM73.12 67.963h-7.778l6.483-29.974H79.6L73.12 67.96zm-17.011-.1h-8.457l-6.184-23.945a3.258 3.258 0 00-1.854-2.625 32.134 32.134 0 00-7.646-2.528l.2-.875h13.183a3.623 3.623 0 013.6 3.048l3.236 17.332 8.069-20.38h8.425L56.11 67.862z"/></g></svg>