<svg xmlns="http://www.w3.org/2000/svg" id="Full_Color_Logo" width="165.558" height="33.964"><defs><style>.cls-1{fill:#585858}</style></defs><g id="Insurance_Broker" transform="translate(142.225 21.72)"><path id="R" d="M920.8 152.9h.934a.974.974 0 011.087.985.9.9 0 01-.628.9l.7 1.308h-.594l-.628-1.223h-.323v1.223h-.548zm.883 1.528c.459 0 .594-.2.594-.526s-.17-.509-.594-.509h-.34v1.053z" class="cls-1" transform="translate(-906.654 -148.654)"/><path id="E" d="M906.8 152.9h1.8v.475h-1.257v.866h1.172l-.051.459h-1.121v.917h1.308v.475h-1.834z" class="cls-1" transform="translate(-895.031 -148.654)"/><path id="K" d="M890.1 152.9h.543v1.528l1.1-1.528h.645l-1.019 1.376 1.138 1.834h-.662l-.815-1.393-.391.509v.883h-.539z" class="cls-1" transform="translate(-881.167 -148.654)"/><path id="O_1_" d="M869.225 152.5a1.665 1.665 0 11-1.63 1.7v-.017a1.6 1.6 0 011.562-1.664.128.128 0 01.068-.019zm0 2.853a1.091 1.091 0 001.07-1.172 1.074 1.074 0 10-1.07 1.172z" class="cls-1" transform="translate(-862.483 -148.321)"/><path id="R_1_" d="M853.1 152.9h.934a.974.974 0 011.087.985.9.9 0 01-.611.9l.7 1.308h-.594l-.628-1.223h-.323v1.223h-.543l-.022-3.193zm.883 1.528c.458 0 .594-.2.594-.526s-.17-.509-.594-.509h-.357v1.053z" class="cls-1" transform="translate(-850.451 -148.654)"/><path id="B" d="M837.5 152.9h.9c.73 0 1.07.357 1.07.849a.7.7 0 01-.425.645.781.781 0 01.594.764 1.009 1.009 0 01-1.121.951H837.5zm.917 1.308c.34 0 .509-.153.509-.425s-.17-.408-.526-.408h-.357v.832zm.068 1.41c.408 0 .611-.2.611-.492 0-.272-.136-.492-.611-.492h-.442v.985z" class="cls-1" transform="translate(-837.5 -148.654)"/><path id="E_1_" d="M964.117 128.3h1.8v.475h-1.274v.866h1.157l-.051.459h-1.1v.917h1.291v.475h-1.84z" class="cls-1" transform="translate(-942.601 -128.232)"/><path id="C" d="M947.547 127.9a2.353 2.353 0 01.9.17l-.119.442a2.438 2.438 0 00-.781-.136 1.2 1.2 0 000 2.378 2.437 2.437 0 00.781-.136l.136.459a2.734 2.734 0 01-.917.153 1.664 1.664 0 010-3.328z" class="cls-1" transform="translate(-927.491 -127.9)"/><path id="N_2_" d="M928 128.285l.476-.068 1.511 2.225V128.2h.526v3.21h-.476l-1.494-2.225v2.225H928z" class="cls-1" transform="translate(-912.631 -128.149)"/><path id="A_1_" d="M910.253 128.3h.645l1.053 3.21h-.543l-.289-.9h-1.087l-.289.9h-.543zm.713 1.834l-.221-.7c-.051-.17-.119-.408-.17-.628-.051.2-.1.425-.17.628l-.221.7z" class="cls-1" transform="translate(-897.024 -128.232)"/><path id="R_2_" d="M895.3 128.3h.934a.974.974 0 011.087.985.9.9 0 01-.611.9l.7 1.308h-.594l-.628-1.223h-.323v1.223h-.543l-.022-3.193zm.883 1.528c.458 0 .594-.2.594-.526s-.17-.526-.594-.526h-.357v1.053z" class="cls-1" transform="translate(-885.484 -128.232)"/><path id="U" d="M877 128.217h.543v1.983a.7.7 0 00.73.8c.493 0 .73-.34.73-.815V128.2h.526v2.038a1.179 1.179 0 01-1.138 1.223h-.119a1.186 1.186 0 01-1.257-1.223l-.015-2.021z" class="cls-1" transform="translate(-870.292 -128.149)"/><path id="S" d="M862.27 130.632a1.642 1.642 0 00.8.2c.323 0 .509-.17.509-.425 0-.628-1.375-.492-1.375-1.528a.918.918 0 011-.883 1.912 1.912 0 01.815.187l-.153.442a2.1 2.1 0 00-.662-.153.387.387 0 00-.441.34v.068c0 .611 1.375.509 1.375 1.528a.97.97 0 01-1.087.9 2.076 2.076 0 01-.951-.238z" class="cls-1" transform="translate(-857.922 -127.983)"/><path id="N_1_" d="M844.6 128.285l.475-.068 1.511 2.225V128.2h.526v3.21h-.476l-1.494-2.225v2.225h-.542z" class="cls-1" transform="translate(-843.394 -128.149)"/><path id="I_1_" d="M837.5 128.3h.543v3.21h-.543z" class="cls-1" transform="translate(-837.5 -128.232)"/></g><g id="Diamond_Shape"><path id="Shap" fill="#007da0" d="M25.473 27.6L6.373 8.5l4.246-4.246h29.713L44.578 8.5l-3.464 3.447a7.741 7.741 0 014.755 1.613l5.078-5.061L42.455 0H8.491L0 8.491l25.473 25.473 5.727-5.723 1.359-7.727z"/></g><g id="Diamond" transform="translate(32.13 12.737)"><path id="D_1_" d="M737.987 76.8h5.791c4.585 0 6.589 3.006 6.589 6.657 0 4.959-3.227 9.714-9.476 9.714H735.1zm3.176 13.45c4.4 0 5.723-3.617 5.723-6.453 0-2.157-1.019-4.059-3.872-4.059h-2.225l-1.851 10.512z" class="cls-1" transform="translate(-642.395 -76.494)"/><path id="N" d="M643.919 77.223l2.853-.306 5.028 10.155 1.816-10.172h3.311l-2.9 16.371h-2.887l-4.942-10.1-1.8 10.1H641.1z" class="cls-1" transform="translate(-564.358 -76.577)"/><path id="O" d="M546.235 75c4.364 0 6.963 3.227 6.963 7.183a9.987 9.987 0 01-9.934 9.8c-4.347 0-6.963-3.193-6.963-7.149A10.027 10.027 0 01546.235 75zm-2.445 14.027c3.43 0 5.927-3.159 5.927-6.521 0-2.479-1.409-4.551-3.991-4.551-3.43 0-5.927 3.21-5.927 6.521-.018 2.479 1.409 4.551 3.99 4.551z" class="cls-1" transform="translate(-477.355 -75)"/><path id="M" d="M411.865 76.8h3.7l.951 9.663c.1.9.136 2.157.2 3.312.476-1.155.985-2.411 1.393-3.312l4.347-9.663h3.7l-.526 16.371h-3.328l.374-8.2c.051-.832.17-1.885.306-3.006-.476 1.1-.951 2.191-1.325 3.023l-3.7 8.033h-3.617l-.866-8.033c-.1-.832-.2-1.936-.289-3.074-.238 1.1-.492 2.225-.73 3.04l-2.513 8.2H406.6z" class="cls-1" transform="translate(-369.681 -76.494)"/><path id="A" d="M323.483 76.8h3.974l2.31 16.371h-3.345l-.56-4.229h-5.027l-2.055 4.229h-3.38zm1.987 9.255l-.306-2.411c-.119-.951-.2-2.293-.255-3.515-.492 1.257-1.036 2.581-1.494 3.515l-1.189 2.411z" class="cls-1" transform="translate(-293.969 -76.494)"/><path id="I" d="M287.17 76.8h3.311l-2.887 16.371H284.3z" class="cls-1" transform="translate(-268.15 -76.494)"/><path id="D" d="M197.844 76.8h-.744l-6.1 6.114-1.8 10.257h5.791c6.232 0 9.476-4.738 9.476-9.714-.017-3.651-2.038-6.657-6.623-6.657zm-2.615 13.45H193l1.851-10.512h2.225c2.853 0 3.872 1.919 3.872 4.059.004 2.836-1.321 6.453-5.719 6.453z" class="cls-1" transform="translate(-189.2 -76.494)"/></g><g id="LTD" transform="translate(142.225 12.737)"><path id="Deep_D" d="M897.828 86.474a1.013 1.013 0 00-.374-.272 1.217 1.217 0 00-.492-.1h-.662v2.581h.662a1.217 1.217 0 00.492-.1 1.047 1.047 0 00.594-.679 1.776 1.776 0 00.085-.509 1.424 1.424 0 00-.085-.526 1 1 0 00-.22-.395z" class="cls-1" transform="translate(-886.315 -84.215)"/><path id="Shape" d="M850.152 75h-9.459a3.193 3.193 0 100 6.385h9.459a3.193 3.193 0 000-6.385zm-6.64 5.146h-2.768v-3.923h.764v3.244h2zm2.734-3.244h-1.257v3.244h-.764V76.9h-1.257v-.66h3.278zm3.7 2.089a1.656 1.656 0 01-1 1.019 1.843 1.843 0 01-.8.136h-1.426v-3.923h1.426a2.422 2.422 0 01.849.153 1.673 1.673 0 01.968 1.036 2.323 2.323 0 01.119.764 1.919 1.919 0 01-.136.815z" class="cls-1" transform="translate(-837.5 -75)"/></g></svg>