<svg xmlns="http://www.w3.org/2000/svg" width="31.228" height="31.228"><path fill="#3a98b2" fill-rule="evenodd" d="M7.807 0A7.807 7.807 0 000 7.807v15.614a7.807 7.807 0 007.807 7.807h15.614a7.807 7.807 0 007.807-7.807V7.807A7.807 7.807 0 0023.421 0zm7.807 20.3a4.684 4.684 0 10-4.684-4.684 4.684 4.684 0 004.684 4.684z" opacity=".25"/><path fill="#3a98b2" d="M24.982 7.807a1.561 1.561 0 10-1.561-1.562 1.561 1.561 0 001.561 1.562z"/><path fill="#3a98b2" fill-rule="evenodd" d="M23.421 15.614a7.807 7.807 0 11-7.807-7.807 7.807 7.807 0 017.807 7.807zm-3.123 0a4.684 4.684 0 11-4.684-4.684 4.684 4.684 0 014.684 4.684z"/></svg>