<svg xmlns="http://www.w3.org/2000/svg" id="linkedin" width="31.228" height="31.228"><defs><style>.cls-2{fill:#3a98b2}</style></defs><path id="Path_12440" fill="#3a98b2" d="M2 6.684A4.684 4.684 0 016.684 2h21.859a4.684 4.684 0 014.684 4.684v21.859a4.684 4.684 0 01-4.684 4.684H6.684A4.684 4.684 0 012 28.543z" opacity=".25" transform="translate(-2 -2)"/><path id="Path_12441" d="M7.561 9.123A1.561 1.561 0 106 7.561a1.561 1.561 0 001.561 1.562z" class="cls-2" transform="translate(.246 .246)"/><path id="Path_12442" d="M7.561 10A1.561 1.561 0 006 11.561v9.369a1.561 1.561 0 103.123 0v-9.369A1.561 1.561 0 007.561 10z" class="cls-2" transform="translate(.246 2.491)"/><path id="Path_12443" d="M16.246 13.123a3.123 3.123 0 00-3.123 3.123v4.684a1.561 1.561 0 11-3.123 0v-9.369a1.562 1.562 0 012.984-.643 6.247 6.247 0 019.507 5.328v4.684a1.561 1.561 0 01-3.123 0v-4.684a3.123 3.123 0 00-3.122-3.123z" class="cls-2" transform="translate(2.491 2.491)"/></svg>